<svg width="419" height="383" viewBox="0 0 419 383" fill="none" xmlns="http://www.w3.org/2000/svg">
<g filter="url(#filter0_dd_1_18)">
<path d="M4 375L8 186.5L13 175L19.5 163.5L29.5 152L37.5 145L49 138L61.5 132.5L75.5 130.5L88 129.5V297H252.5L250 313.5L246.5 324.5L239.5 337.5L233 347L224 357.5L213 365L200.5 371L190.25 373L180 375H92H4Z" fill="#207546" fill-opacity="0.82"/>
<path d="M375.5 107.75V29L296.663 107.507L375.5 107.75Z" fill="#99D2B1"/>
<path d="M375.5 29H294.5V107.5L296.663 107.507L375.5 29Z" fill="#83CAA2"/>
<path d="M218 186.5H375.5V107.75L296.663 107.507L218 185.84V186.5Z" fill="#CBE7D8"/>
<path d="M294.5 29H218V185.84L296.663 107.507L294.5 107.5V29Z" fill="#ADDBC1"/>
<path d="M316 266.5C349.765 253.397 363.199 240.149 375.5 204V186.5H218V185.84L138.776 264.731C140.121 266.004 141.474 266.315 143.5 266.5H316Z" fill="#F4FAF8"/>
<path d="M137 97.5V262.5C137.625 263.464 138.2 264.186 138.776 264.731L218 185.84V29H202.5C166.049 41.4771 148.306 52.0092 137 97.5Z" fill="#E0F1E7"/>
<path opacity="0.6" d="M399.777 12V41.5C399.777 47.5 414.277 48.5 414.277 41.5V1.5805e-05H371.277C363.277 5.13663e-05 365.276 12 371.277 12H399.777Z" fill="#488E67" fill-opacity="0.12"/>
</g>
<defs>
<filter id="filter0_dd_1_18" x="0" y="0" width="418.277" height="383" filterUnits="userSpaceOnUse" color-interpolation-filters="sRGB">
<feFlood flood-opacity="0" result="BackgroundImageFix"/>
<feColorMatrix in="SourceAlpha" type="matrix" values="0 0 0 0 0 0 0 0 0 0 0 0 0 0 0 0 0 0 127 0" result="hardAlpha"/>
<feOffset dy="4"/>
<feGaussianBlur stdDeviation="2"/>
<feComposite in2="hardAlpha" operator="out"/>
<feColorMatrix type="matrix" values="0 0 0 0 0 0 0 0 0 0 0 0 0 0 0 0 0 0 0.25 0"/>
<feBlend mode="normal" in2="BackgroundImageFix" result="effect1_dropShadow_1_18"/>
<feColorMatrix in="SourceAlpha" type="matrix" values="0 0 0 0 0 0 0 0 0 0 0 0 0 0 0 0 0 0 127 0" result="hardAlpha"/>
<feOffset dy="4"/>
<feGaussianBlur stdDeviation="2"/>
<feComposite in2="hardAlpha" operator="out"/>
<feColorMatrix type="matrix" values="0 0 0 0 0 0 0 0 0 0 0 0 0 0 0 0 0 0 0.25 0"/>
<feBlend mode="normal" in2="effect1_dropShadow_1_18" result="effect2_dropShadow_1_18"/>
<feBlend mode="normal" in="SourceGraphic" in2="effect2_dropShadow_1_18" result="shape"/>
</filter>
</defs>
</svg>
